<?xml version="1.0" encoding="utf-8"?>
<!-- Generator: Adobe Illustrator 23.0.1, SVG Export Plug-In . SVG Version: 6.00 Build 0)  -->
<svg version="1.1" xmlns="http://www.w3.org/2000/svg" xmlns:xlink="http://www.w3.org/1999/xlink" x="0px" y="0px"
	 viewBox="0 0 276.3 25.7" style="enable-background:new 0 0 276.3 25.7;" xml:space="preserve">
<style type="text/css">
	.st0{display:none;}
	.st1{display:inline;}
</style>
<g id="Calque_1" class="st0">
	
		<image style="display:inline;overflow:visible;" width="272" height="26" xlink:href="logo_escape_game.png"  transform="matrix(1 0 0 1 1.9213 27.2247)">
	</image>
</g>
<g id="Calque_2">
	<g>
		<path d="M10.9,23.2c-1.4,0-2.6-0.1-3.6-0.4c-1-0.2-1.7-0.6-2.3-1.1s-1-1.2-1.2-2.1c-0.2-0.8-0.4-1.9-0.4-3.1v-6.1
			c0-1.2,0.1-2.3,0.4-3.1C4.1,6.5,4.5,5.8,5,5.2c0.6-0.5,1.3-0.9,2.3-1.1c1-0.2,2.1-0.4,3.6-0.4h4.8v3.7h-4.8
			c-0.6,0-1.1,0.1-1.5,0.2c-0.4,0.1-0.7,0.3-1,0.5C8.1,8.3,8,8.6,7.9,9c-0.1,0.4-0.1,0.9-0.1,1.4v1.3h16.6v3.5H7.8v1.4
			c0,0.6,0,1.1,0.1,1.5c0.1,0.4,0.2,0.7,0.5,0.9c0.2,0.2,0.5,0.4,1,0.5c0.4,0.1,0.9,0.1,1.6,0.1h13.6v3.7H10.9z"/>
		<path d="M26.7,23.2v-3.7h14.8c0.8,0,1.3-0.1,1.7-0.3c0.3-0.2,0.5-0.7,0.5-1.3v-1.1c0-0.6-0.2-1-0.5-1.3c-0.3-0.3-0.9-0.4-1.7-0.4
			h-9.3c-1.1,0-2-0.1-2.7-0.3s-1.3-0.5-1.7-0.9c-0.4-0.4-0.7-0.9-0.9-1.5c-0.2-0.6-0.2-1.3-0.2-2.2v-1c0-1,0.1-1.8,0.3-2.5
			C27.2,6,27.6,5.4,28,5c0.4-0.4,1-0.7,1.7-0.9c0.7-0.2,1.5-0.3,2.5-0.3h6.1v3.7h-5.7c-0.7,0-1.2,0.1-1.5,0.4
			c-0.3,0.3-0.5,0.8-0.5,1.6V10c0,0.6,0.1,1,0.4,1.3c0.3,0.3,0.8,0.4,1.5,0.4h9.1c1.1,0,2,0.1,2.8,0.3c0.8,0.2,1.4,0.5,1.8,0.9
			c0.5,0.4,0.8,0.9,1,1.5c0.2,0.6,0.3,1.4,0.3,2.3v1.5c0,0.9-0.1,1.7-0.3,2.3c-0.2,0.6-0.6,1.2-1,1.6c-0.5,0.4-1.1,0.7-1.8,0.9
			c-0.8,0.2-1.7,0.3-2.8,0.3H26.7z"/>
		<path d="M57.6,23.2c-1.4,0-2.6-0.1-3.6-0.4c-1-0.2-1.7-0.6-2.3-1.1s-1-1.2-1.2-2.1c-0.2-0.8-0.4-1.9-0.4-3.1v-6.1
			c0-1.2,0.1-2.3,0.4-3.1c0.2-0.9,0.6-1.5,1.2-2.1c0.6-0.5,1.3-0.9,2.3-1.1c1-0.2,2.1-0.4,3.6-0.4h13.5v3.7H57.8
			c-0.7,0-1.2,0.1-1.6,0.2c-0.4,0.1-0.8,0.3-1,0.5c-0.2,0.2-0.4,0.6-0.5,1c-0.1,0.4-0.1,0.9-0.1,1.5v5.7c0,0.6,0,1.1,0.1,1.5
			c0.1,0.4,0.3,0.7,0.5,1c0.2,0.2,0.6,0.4,1,0.5c0.4,0.1,1,0.1,1.7,0.1h13.3v3.7H57.6z"/>
		<path d="M93.7,18.7H80.2l-2.8,4.5h-5l11.3-18c0.3-0.6,0.8-1,1.2-1.4c0.5-0.4,1.2-0.5,2.1-0.5c0.9,0,1.6,0.2,2,0.5
			c0.5,0.4,0.9,0.8,1.2,1.4l11.2,18h-5L93.7,18.7z M82.3,15.4h9.4L87,7.7L82.3,15.4z"/>
		<path d="M107.8,17.6v5.6h-4.3V3.7H119c1.4,0,2.5,0.1,3.5,0.3c0.9,0.2,1.7,0.6,2.3,1.1c0.6,0.5,1,1.2,1.2,2
			c0.2,0.8,0.4,1.8,0.4,2.9v1.7c0,1.2-0.1,2.1-0.3,2.9c-0.2,0.8-0.6,1.4-1.2,1.8c-0.6,0.5-1.3,0.8-2.2,1s-2.1,0.3-3.5,0.3H107.8z
			 M122,10.2c0-1-0.2-1.8-0.7-2.1c-0.4-0.4-1.3-0.6-2.4-0.6h-11.1v6.6H119c1.1,0,1.9-0.2,2.4-0.5c0.4-0.4,0.7-1,0.7-2.1V10.2z"/>
		<path d="M136.3,23.2c-1.4,0-2.6-0.1-3.6-0.4c-1-0.2-1.7-0.6-2.3-1.1s-1-1.2-1.2-2.1c-0.2-0.8-0.4-1.9-0.4-3.1v-6.1
			c0-1.2,0.1-2.3,0.4-3.1c0.2-0.9,0.6-1.5,1.2-2.1c0.6-0.5,1.3-0.9,2.3-1.1c1-0.2,2.1-0.4,3.6-0.4h4.8v3.7h-4.8
			c-0.6,0-1.1,0.1-1.5,0.2c-0.4,0.1-0.7,0.3-1,0.5c-0.2,0.2-0.4,0.5-0.5,0.9c-0.1,0.4-0.1,0.9-0.1,1.4v1.3h16.6v3.5h-16.6v1.4
			c0,0.6,0,1.1,0.1,1.5c0.1,0.4,0.2,0.7,0.5,0.9c0.2,0.2,0.5,0.4,1,0.5c0.4,0.1,0.9,0.1,1.6,0.1h13.6v3.7H136.3z"/>
		<path d="M171.3,23.2c-1.4,0-2.6-0.1-3.6-0.4c-1-0.2-1.7-0.6-2.3-1.1c-0.6-0.5-1-1.2-1.2-2.1c-0.2-0.8-0.4-1.9-0.4-3.1v-6.1
			c0-1.2,0.1-2.3,0.4-3.1c0.2-0.9,0.6-1.5,1.2-2.1c0.6-0.5,1.3-0.9,2.3-1.1s2.1-0.4,3.6-0.4h5.1v3.7h-4.9c-0.6,0-1.2,0.1-1.6,0.2
			c-0.4,0.1-0.8,0.3-1,0.5c-0.2,0.2-0.4,0.6-0.5,1c-0.1,0.4-0.2,0.9-0.2,1.5v5.7c0,0.6,0.1,1.2,0.2,1.6c0.1,0.4,0.3,0.7,0.5,1
			c0.3,0.2,0.6,0.4,1,0.5c0.4,0.1,1,0.1,1.6,0.1h7.3c0.6,0,1.1,0,1.5-0.1c0.4-0.1,0.8-0.2,1-0.5c0.3-0.2,0.4-0.6,0.6-1
			c0.1-0.4,0.2-1,0.2-1.7v-4.5h4.3v4.9c0,1.2-0.1,2.3-0.4,3.1c-0.2,0.8-0.6,1.5-1.2,2.1c-0.6,0.5-1.3,0.9-2.3,1.1
			c-1,0.2-2.2,0.4-3.6,0.4H171.3z"/>
		<path d="M244.6,23.2V10.4l-9.5,12.4c-0.4,0.6-1.1,0.8-1.9,0.8s-1.5-0.3-1.9-0.8l-9.5-12.4v12.8h-3.9V5.1c0-0.6,0.2-1.1,0.7-1.3
			c0.4-0.3,1-0.4,1.7-0.4c0.5,0,0.9,0.1,1.2,0.2c0.3,0.1,0.6,0.4,0.8,0.7l11,14.6l11.1-14.6c0.2-0.3,0.5-0.6,0.8-0.7
			c0.3-0.1,0.7-0.2,1.2-0.2c0.7,0,1.2,0.1,1.7,0.4c0.4,0.3,0.7,0.7,0.7,1.3v18.1H244.6z"/>
		<path d="M259.2,23.2c-1.4,0-2.6-0.1-3.6-0.4c-1-0.2-1.7-0.6-2.3-1.1c-0.6-0.5-1-1.2-1.2-2.1c-0.2-0.8-0.4-1.9-0.4-3.1v-6.1
			c0-1.2,0.1-2.3,0.4-3.1c0.2-0.9,0.6-1.5,1.2-2.1c0.6-0.5,1.3-0.9,2.3-1.1c1-0.2,2.1-0.4,3.6-0.4h4.8v3.7h-4.8
			c-0.6,0-1.1,0.1-1.5,0.2c-0.4,0.1-0.7,0.3-1,0.5c-0.2,0.2-0.4,0.5-0.5,0.9c-0.1,0.4-0.1,0.9-0.1,1.4v1.3h16.6v3.5h-16.6v1.4
			c0,0.6,0,1.1,0.1,1.5c0.1,0.4,0.2,0.7,0.5,0.9c0.2,0.2,0.5,0.4,1,0.5c0.4,0.1,0.9,0.1,1.6,0.1h13.6v3.7H259.2z"/>
	</g>
	<rect x="176.4" y="11.7" width="5.7" height="3.7"/>
</g>
<g id="Calque_4">
	<path d="M204.6,5c-0.1-0.1-1.2-1.7-3.1-1.7c-2.1,0-3.2,1.7-3.2,1.8c-3.8,6-7.5,12.1-11.3,18.1c9.7,0,19.4,0,29.1,0
		C212.2,17.1,208.4,11.1,204.6,5z M201.1,19.3c-0.2-0.6-0.4-1.1-0.6-1.7c-0.2-0.5-0.3-1.1-0.5-1.6c-2,1.3-4,2.5-6.1,3.8
		c2.4-4.2,4.9-8.3,7.3-12.5c2.3,3.8,4.5,7.6,6.8,11.5c-1-0.5-1.9-1.1-2.9-1.6c-1-0.6-2-1.1-3-1.7c-0.2,0.7-0.5,1.4-0.7,2.2
		C201.4,18.2,201.3,18.8,201.1,19.3z"/>
</g>
<g id="Calque_5" class="st0">
	<path class="st1" d="M142.6,49.7c-0.1-0.1-1.2-1.7-3.1-1.7c-2.1,0-3.2,1.7-3.2,1.8c-3.8,6-7.5,12.1-11.3,18.1c9.7,0,19.4,0,29.1,0
		C150.2,61.9,146.4,55.8,142.6,49.7z M139.1,64.1c-0.2-0.6-0.4-1.1-0.6-1.7c-0.2-0.5-0.3-1.1-0.5-1.6c-2,1.3-4,2.5-6.1,3.8
		c2.4-4.2,4.9-8.3,7.3-12.5c2.3,3.8,4.5,7.6,6.8,11.5c-1-0.5-1.9-1.1-2.9-1.6c-1-0.6-2-1.1-3-1.7c-0.2,0.7-0.5,1.4-0.7,2.2
		C139.4,63,139.2,63.5,139.1,64.1z"/>
</g>
<g id="Calque_3" class="st0">
	<path class="st1" d="M208.2,18.7c-2-1-4-1.9-5.9-2.9c-0.1,1.2-0.2,2.3-0.3,3.5h-1.6c-0.1-1.1-0.1-2.2-0.2-3.4c-2,1.3-4,2.5-6.1,3.8
		c2.4-4.2,4.9-8.3,7.3-12.5C203.6,11.1,205.9,14.9,208.2,18.7z"/>
</g>
</svg>
