<?xml version="1.0" encoding="utf-8"?>
<!-- Generator: Adobe Illustrator 24.1.1, SVG Export Plug-In . SVG Version: 6.00 Build 0)  -->
<svg version="1.1" xmlns="http://www.w3.org/2000/svg" xmlns:xlink="http://www.w3.org/1999/xlink" x="0px" y="0px"
	 viewBox="0 0 999 140" style="enable-background:new 0 0 999 140;" xml:space="preserve">
<style type="text/css">
	.st0{display:none;}
	.st1{display:inline;}
	.st2{fill:#FFFFFF;}
</style>
<g id="Calque_1" class="st0">
	<g class="st1">
		<path d="M24.9,110.4V14.6h64.4v19.6H47.2v18H87v18.5H47.2v19.9h44.5v19.8H24.9z"/>
		<path d="M157.6,39.5c-3.9-5-11.1-8.3-17-8.3s-13.4,2-13.4,9.6c0,6.4,5.7,8.4,14.7,11.2c13,4.2,29.8,9.7,29.8,28.8
			c0,22.1-17.7,31.9-36.7,31.9c-13.7,0-27.5-5-35.9-13.8l15.2-15.4c4.6,5.8,13.1,10.1,20.7,10.1c7,0,13.3-2.7,13.3-10.4
			c0-7.3-7.3-9.6-19.9-13.7c-12.2-3.9-24.5-10.1-24.5-27.5c0-21.2,19.2-30,37.1-30c10.8,0,23,4.1,31.4,11.8L157.6,39.5z"/>
		<path d="M234,113c-29.5,0-51.5-20.6-51.5-50.6c0-30.7,22.7-50.3,51.9-50.3c13.4,0,27.9,4.9,35.9,14.1l-15.7,15.7
			c-4.3-6-12-8.8-19.3-8.8c-16.1,0-27.6,12.4-27.6,29.4c0,17.5,11.2,29.4,27.2,29.4c9.1,0,16.2-4.1,20.3-9.7l16.1,15.2
			C262.8,106.9,250.1,113,234,113z"/>
		<path d="M344.4,110.4L337,91.6h-37.1l-7,18.8h-25.2l40.2-95.8h22.5l39.8,95.8H344.4z M318.7,40.2L306.5,73h24.1L318.7,40.2z"/>
		<path d="M412.7,74.3h-11.5v36.1h-23.1V14.6h35.2c21,0,37.5,7.6,37.5,29.5C450.8,66.3,432.8,74.3,412.7,74.3z M411.4,33.3h-10.1
			v22.6h9.7c8.7,0,16.6-2.6,16.6-11.6C427.6,35,419.6,33.3,411.4,33.3z"/>
		<path d="M464.7,110.4V14.6h64.4v19.6H487v18h39.8v18.5H487v19.9h44.5v19.8H464.7z"/>
		<path d="M628.8,112.8c-30.6,0-52.6-20.3-52.6-50.5c0-30.7,22.7-50.3,51.9-50.3c15,0,29,5,36.9,12.7l-14.6,16.6
			c-4.5-5.1-12.2-8.9-21.5-8.9c-16.2,0-28.1,12.7-28.1,29.9c0,17.6,10.4,30.2,29.2,30.2c5.4,0,10.4-0.8,14.5-2.6V72.5h-18.3V53.8
			h39.5v50.7C656.4,109.4,643.5,112.8,628.8,112.8z"/>
		<path d="M870.1,110.4l0.5-67.8h-0.4l-24.9,67.8h-16.2l-24.2-67.8h-0.4l0.5,67.8h-21.8V14.6h32.9L837.9,76h0.5l20.8-61.4h33.4v95.8
			H870.1z"/>
		<path d="M912.5,110.4V14.6h64.4v19.6h-42.1v18h39.8v18.5h-39.8v19.9h44.5v19.8H912.5z"/>
	</g>
	<path class="st1" d="M673.5,110.8"/>
	<path class="st1" d="M764.7,56"/>
</g>
<g id="final_test">
	<path d="M671.5,118.2"/>
	<path d="M762.7,63.4"/>
	<g>
		<g>
			<path class="st2" d="M22.9,117.8V22h64.4v19.6H45.2v18H85v18.5H45.2V98h44.5v19.8H22.9z"/>
			<path class="st2" d="M155.6,46.9c-3.9-5-11.1-8.3-17-8.3s-13.4,2-13.4,9.6c0,6.4,5.7,8.4,14.7,11.2c13,4.2,29.8,9.7,29.8,28.8
				c0,22.1-17.7,31.9-36.7,31.9c-13.7,0-27.5-5-35.9-13.8L112.3,91c4.6,5.8,13.1,10.1,20.7,10.1c7,0,13.3-2.7,13.3-10.4
				c0-7.3-7.3-9.6-19.9-13.7c-12.2-3.9-24.5-10.1-24.5-27.5c0-21.2,19.2-30,37.1-30c10.8,0,23,4.1,31.4,11.8L155.6,46.9z"/>
			<path class="st2" d="M232,120.4c-29.5,0-51.5-20.6-51.5-50.6c0-30.7,22.7-50.3,51.9-50.3c13.4,0,27.9,4.9,35.9,14.1l-15.7,15.7
				c-4.3-6-12-8.8-19.3-8.8c-16.1,0-27.6,12.4-27.6,29.4c0,17.5,11.2,29.4,27.2,29.4c9.1,0,16.2-4.1,20.3-9.7l16.1,15.2
				C260.8,114.3,248.1,120.4,232,120.4z"/>
			<path class="st2" d="M342.4,117.8L335,99h-37.1l-7,18.8h-25.2L305.9,22h22.5l39.8,95.8H342.4z M316.7,47.6l-12.2,32.9h24.1
				L316.7,47.6z"/>
			<path class="st2" d="M410.7,81.7h-11.5v36.1h-23.1V22h35.2c21,0,37.5,7.6,37.5,29.5C448.8,73.7,430.8,81.7,410.7,81.7z
				 M409.4,40.7h-10.1v22.6h9.7c8.7,0,16.6-2.6,16.6-11.6C425.6,42.4,417.6,40.7,409.4,40.7z"/>
			<path class="st2" d="M462.7,117.8V22h64.4v19.6H485v18h39.8v18.5H485V98h44.5v19.8H462.7z"/>
			<path class="st2" d="M626.8,120.2c-30.6,0-52.6-20.3-52.6-50.5c0-30.7,22.7-50.3,51.9-50.3c15,0,29,5,36.9,12.7l-14.6,16.6
				c-4.5-5.1-12.2-8.9-21.5-8.9c-16.2,0-28.1,12.7-28.1,29.9c0,17.6,10.4,30.2,29.2,30.2c5.4,0,10.4-0.8,14.5-2.6V79.9h-18.3V61.3
				h39.5V112C654.4,116.9,641.5,120.2,626.8,120.2z"/>
			<path class="st2" d="M868.1,117.8l0.5-67.8h-0.4l-24.9,67.8h-16.2L802.9,50h-0.4l0.5,67.8h-21.8V22h32.9l21.8,61.4h0.5L857.3,22
				h33.4v95.8H868.1z"/>
			<path class="st2" d="M910.5,117.8V22h64.4v19.6h-42.1v18h39.8v18.5h-39.8V98h44.5v19.8H910.5z"/>
		</g>
		<path class="st2" d="M773,117.4h-25.5l-16.3-44.7c4.1-2.8,6.8-7.5,6.8-12.8c0-8.6-6.9-15.5-15.5-15.5S707,51.4,707,59.9
			c0,4.9,2.3,9.3,5.8,12.1c-5.6,15.1-11.2,30.3-16.8,45.4h-25l40-95h23L773,117.4z"/>
	</g>
	<g>
		<path class="st2" d="M994.5,5v130.5H5.5V5H994.5 M999.5,0H0.5v140.5h999V0L999.5,0z"/>
	</g>
</g>
<g id="A_serrure" class="st0">
	<path class="st1" d="M775,110h-25.5l-16.3-44.7c4.1-2.8,6.8-7.5,6.8-12.8c0-8.6-6.9-15.5-15.5-15.5S709,43.9,709,52.5
		c0,4.9,2.3,9.3,5.8,12.1c-5.6,15.1-11.2,30.3-16.8,45.4h-25l40-95h23L775,110z"/>
</g>
</svg>
